<svg width="213" height="90" viewBox="0 0 213 90" fill="none" xmlns="http://www.w3.org/2000/svg">
<path d="M26.1196 57.3524C25.8616 57.8187 25.4024 58.3371 24.742 58.9052C24.0816 59.4756 23.2484 59.9656 22.2377 60.3799C21.2293 60.7941 20.0648 61 18.7439 61C17.4231 61 16.0976 60.6828 14.9212 60.0485C13.7424 59.4141 12.7932 58.5146 12.0689 57.35C11.3446 56.1855 10.9824 54.815 10.9824 53.2361C10.9824 52.0455 11.1576 50.9709 11.5055 50.0146C11.8559 49.0583 12.4168 48.1707 13.1932 47.3564C13.9696 46.5422 15.0111 45.7658 16.3177 45.0272C17.6243 44.2887 19.2292 43.5455 21.1323 42.7951C23.0354 42.0448 25.2793 41.2424 27.8665 40.3879L25.9634 46.909C25.0048 47.2191 24.0035 47.5765 22.9549 47.9766C21.9063 48.379 20.8648 48.8571 19.8304 49.4134C18.796 49.9696 17.7995 50.6229 16.8408 51.3733L19.7144 48.1517C19.3523 48.618 19.073 49.1814 18.8789 49.8394C18.6848 50.4998 18.5877 51.165 18.5877 51.8396C18.5877 52.7722 18.8339 53.4705 19.3262 53.9368C19.8186 54.4031 20.5027 54.6351 21.3832 54.6351C22.1596 54.6351 22.9549 54.4599 23.7715 54.1119C24.5858 53.7616 25.4995 53.1486 26.5078 52.268L26.1196 57.3524ZM25.2651 61.0024V55.2576L24.0224 57.3145V38.7972L31.7863 38.0208H32.2526V57.5086L28.9151 54.1711H36.911V60.226L36.1346 61.0024H25.2651Z" fill="#023047"/>
<path d="M36.1345 54.1687H43.6665L40.987 55.2954C40.5988 55.0114 40.3408 54.4812 40.2106 53.7048C40.0804 52.9284 40.0165 51.9461 40.0165 50.7555V40.5062L47.7804 39.7298H48.2467V57.5086L44.9092 54.1711H52.905V60.226L52.1286 61.0024H35.3582V54.9475L36.1345 54.1711V54.1687Z" fill="#023047"/>
<path d="M52.1286 61L52.1665 54.9451L52.9428 54.1687H84.3085C86.2234 54.1687 87.504 53.9415 88.1526 53.4894C88.7988 53.0373 89.1231 52.41 89.1231 51.6076C89.1231 50.9354 88.9881 50.3531 88.7159 49.8607C88.4437 49.3684 88.2046 48.9944 87.9987 48.734H91.2202C90.0036 49.0204 88.955 49.2382 88.0768 49.3944C87.1963 49.5506 86.401 49.6595 85.6885 49.7234C84.976 49.7873 84.2588 49.8205 83.5345 49.8205H61.0192C59.5185 49.8205 58.264 49.4394 57.2532 48.6748C56.2449 47.9127 55.6365 46.5847 55.4282 44.6958L71.7324 30.4108H72.1987L75.3043 35.2253L63.6206 45.1243L62.4939 42.9892H85.2411C86.5619 42.9892 87.8354 42.9513 89.0639 42.8732C90.2924 42.7951 91.296 42.6791 92.0724 42.5229H92.5387C93.1849 43.1194 93.8382 43.8555 94.4986 44.7361C95.159 45.6166 95.7224 46.5729 96.1863 47.6097C96.6526 48.6441 96.8846 49.6927 96.8846 50.7531C96.8846 52.0218 96.5792 53.2385 95.9733 54.4031C95.3649 55.5677 94.2974 56.6163 92.7707 57.5465L91.6439 60.1479C90.8936 60.4059 90.0391 60.6142 89.0828 60.768C88.1242 60.9243 87.0519 61 85.8613 61H52.1262H52.1286ZM84.3109 61L87.7265 54.1687H100.809L100.771 60.2236L99.9949 61H84.3109Z" fill="#023047"/>
<path d="M109.738 54.1688V60.2236L108.961 61H100.033V54.9452L100.809 54.1688H109.738Z" fill="#023047"/>
<path d="M118.666 54.1688V60.2236L117.89 61H108.961V54.9452L109.738 54.1688H118.666Z" fill="#023047"/>
<path d="M127.595 54.1688V60.2236L126.818 61H117.89V54.9452L118.666 54.1688H127.595Z" fill="#023047"/>
<path d="M136.523 54.1688V60.2236L135.747 61H126.818V54.9452L127.595 54.1688H136.523Z" fill="#023047"/>
<path d="M145.451 54.1688V60.2236L144.675 61H135.747V54.9452L136.523 54.1688H145.451Z" fill="#023047"/>
<path d="M44.379 29H43.4321C41.7327 29 40.355 30.3777 40.355 32.0771V33.024C40.355 34.7234 41.7327 36.1011 43.4321 36.1011H44.379C46.0784 36.1011 47.4561 34.7234 47.4561 33.024V32.0771C47.4561 30.3777 46.0784 29 44.379 29Z" fill="#219EBC"/>
<path d="M26.0889 29.5397H25.1421C23.4426 29.5397 22.0649 30.9174 22.0649 32.6168V33.5636C22.0649 35.2631 23.4426 36.6408 25.1421 36.6408H26.0889C27.7884 36.6408 29.1661 35.2631 29.1661 33.5636V32.6168C29.1661 30.9174 27.7884 29.5397 26.0889 29.5397Z" fill="#219EBC"/>
<path d="M18.209 30.3942H17.2622C15.5627 30.3942 14.1851 31.7719 14.1851 33.4713V34.4181C14.1851 36.1176 15.5627 37.4953 17.2622 37.4953H18.209C19.9085 37.4953 21.2862 36.1176 21.2862 34.4181V33.4713C21.2862 31.7719 19.9085 30.3942 18.209 30.3942Z" fill="#219EBC"/>
<path d="M136.516 36.936C136.409 36.808 136.292 36.6266 136.164 36.392C136.057 36.136 136.004 35.816 136.004 35.432C136.004 34.792 136.164 34.216 136.484 33.704C136.804 33.1706 137.22 32.744 137.732 32.424C138.244 32.104 138.767 31.944 139.3 31.944C140.004 31.944 140.58 32.1573 141.028 32.584C141.476 33.0106 141.7 33.5226 141.7 34.12C141.7 34.9306 141.465 35.6133 140.996 36.168C140.527 36.7226 139.951 37.1493 139.268 37.448C138.585 37.7253 137.903 37.864 137.22 37.864C136.367 37.864 135.631 37.7146 135.012 37.416C134.393 37.096 133.711 36.552 132.964 35.784L133.924 34.792H134.148C134.639 35.2613 135.151 35.6453 135.684 35.944C136.217 36.2426 136.783 36.392 137.38 36.392C137.999 36.392 138.511 36.2853 138.916 36.072C139.321 35.8586 139.631 35.592 139.844 35.272C140.057 34.952 140.164 34.6426 140.164 34.344C140.164 33.9173 139.993 33.608 139.652 33.416C139.332 33.224 138.948 33.128 138.5 33.128L139.268 33C138.671 33.2133 138.244 33.5333 137.988 33.96C137.732 34.3866 137.604 34.8453 137.604 35.336C137.604 35.7413 137.668 36.0613 137.796 36.296C137.924 36.5093 138.095 36.7013 138.308 36.872L136.516 36.936Z" fill="#219EBC"/>
<path d="M184.589 42.0634C181.169 42.1788 177.61 42.9012 174.812 44.9831C172.389 46.7881 170.697 49.3547 170.021 52.3091C168.557 58.6957 171.025 65.5785 174.611 70.8272C176.989 74.3078 179.948 77.2899 183.426 79.6742C184.456 80.3782 185.986 79.8681 186.584 78.8456C187.253 77.7031 186.787 76.3944 185.755 75.6881C180.996 72.4267 177.035 67.2681 175.26 61.9455C175.038 61.2785 174.842 60.6045 174.681 59.9213C174.609 59.6259 174.545 59.3281 174.487 59.0304C174.457 58.878 174.3 57.8902 174.355 58.3195C174.189 57.0546 174.171 55.7782 174.291 54.5088C174.334 54.0541 174.298 54.428 174.284 54.518C174.309 54.3518 174.337 54.1879 174.367 54.0241C174.422 53.7332 174.487 53.4424 174.563 53.1539C174.63 52.9023 174.704 52.653 174.787 52.4061C174.828 52.2837 174.875 52.1637 174.916 52.0414C175.094 51.5313 174.768 52.3276 174.978 51.8821C175.225 51.3605 175.512 50.8712 175.826 50.3888C175.895 50.2826 175.973 50.1787 176.047 50.0772C175.777 50.4372 175.982 50.1649 176.045 50.0933C176.257 49.8487 176.474 49.6109 176.705 49.3847C177.384 48.7269 177.268 48.8331 177.981 48.3922C178.284 48.2053 178.593 48.0391 178.909 47.8775C179.389 47.6329 179.075 47.769 179.585 47.5844C181.354 46.9427 182.812 46.7396 184.585 46.6796C187.549 46.5804 187.56 41.9618 184.585 42.0634H184.589Z" fill="#023047"/>
<path d="M201.367 29.4032C196.862 23.596 192.516 17.6272 187.835 11.9607C185.695 9.37101 181.767 9.38486 179.496 11.7761C178.494 12.8309 177.566 13.9688 176.606 15.0628C173.552 18.5366 170.496 22.008 167.443 25.4817C167.186 25.7725 166.93 26.0611 166.685 26.3634C165.259 28.1361 165.037 30.5711 166.187 32.5561C166.937 33.8487 168.197 34.6611 169.61 35.0143C171.708 35.5382 173.776 36.196 175.809 36.9369C176.571 37.2139 177.328 37.5047 178.081 37.8094C178.284 37.8925 178.487 37.9779 178.69 38.061C178.217 37.8648 178.598 38.0217 178.826 38.121C179.249 38.3033 179.669 38.4903 180.086 38.6819C181.794 39.4666 183.466 40.3345 185.074 41.3085C185.878 41.7932 186.665 42.3056 187.431 42.848C187.634 42.9911 187.835 43.1366 188.036 43.2843C188.1 43.3304 188.654 43.7551 188.396 43.5543C188.137 43.3535 188.717 43.8128 188.809 43.889C189 44.0459 189.19 44.2052 189.377 44.3668C190.099 44.99 190.794 45.6455 191.445 46.3448C191.756 46.6795 192.061 47.0234 192.352 47.3766C192.403 47.4366 192.827 47.9813 192.622 47.7089C192.433 47.4597 192.89 48.0806 192.961 48.1844C193.492 48.9461 193.967 49.7447 194.371 50.5802C194.464 50.7718 194.549 50.9634 194.637 51.1573C194.381 50.5826 194.646 51.1919 194.701 51.3442C194.87 51.7943 195.018 52.2513 195.142 52.7153C195.267 53.1792 195.366 53.6639 195.452 54.144C195.47 54.2525 195.486 54.361 195.5 54.4694C195.491 54.4048 195.442 53.9293 195.479 54.3494C195.502 54.6287 195.53 54.9057 195.544 55.1873C195.567 55.6466 195.569 56.1059 195.551 56.5652C195.542 56.8006 195.525 57.0361 195.507 57.2715C195.498 57.3915 195.482 57.5092 195.472 57.6293C195.429 58.1694 195.539 57.2415 195.461 57.74C195.283 58.8664 195.008 59.9697 194.641 61.0499C194.54 61.3476 194.431 61.6431 194.318 61.9385C194.268 62.0724 194.214 62.2063 194.159 62.3378C194.196 62.2455 194.321 61.9708 194.134 62.3932C193.854 63.0233 193.552 63.6442 193.227 64.2536C191.738 67.0372 189.857 69.5299 187.766 71.8681C186.464 73.3222 185.088 74.7094 183.673 76.0527C181.515 78.1023 184.781 81.3614 186.937 79.3164C194.397 72.2351 203.14 61.4654 199.262 50.4164C196.62 42.8896 189.504 37.9825 182.556 34.7627C179.666 33.424 176.682 32.2791 173.635 31.349C172.779 31.0858 171.916 30.8412 171.048 30.6173C170.84 30.5642 170.628 30.5203 170.422 30.4626C170.383 30.4511 170.342 30.4465 170.302 30.4349C170.201 30.4049 170.607 30.5688 170.565 30.5411C170.272 30.3403 170.161 30.3057 170.041 29.9895C169.951 29.7517 170.025 29.5602 170.323 29.1839C170.722 28.6808 171.177 28.2122 171.602 27.7298C173.123 26.001 174.642 24.2723 176.163 22.5435C177.762 20.7247 179.359 18.9082 180.959 17.0894C181.55 16.4177 182.441 14.9497 183.295 14.6266C184.149 14.3035 184.998 15.7807 185.584 16.5377C186.888 18.2204 188.195 19.9007 189.499 21.5833C192.195 25.057 194.888 28.5331 197.584 32.0068C197.757 32.2284 197.928 32.4499 198.101 32.6715C198.865 33.6571 200.562 33.4747 201.365 32.6715C202.339 31.6975 202.131 30.3957 201.365 29.4078L201.367 29.4032Z" fill="#023047"/>
<path d="M185.605 50.6334H184.682C183.025 50.6334 181.681 51.9768 181.681 53.6339V54.5572C181.681 56.2143 183.025 57.5577 184.682 57.5577H185.605C187.262 57.5577 188.606 56.2143 188.606 54.5572V53.6339C188.606 51.9768 187.262 50.6334 185.605 50.6334Z" fill="url(#paint0_linear_668_10625)"/>
<defs>
<linearGradient id="paint0_linear_668_10625" x1="186.96" y1="57.2392" x2="183.327" y2="50.9496" gradientUnits="userSpaceOnUse">
<stop offset="0.4" stop-color="#219EBC"/>
<stop offset="1" stop-color="#BDE0FE"/>
</linearGradient>
</defs>
</svg>
