<svg width="280" height="280" viewBox="0 0 280 280" fill="none" xmlns="http://www.w3.org/2000/svg">
<rect width="280" height="280" rx="52" fill="url(#paint0_linear_51_4371)"/>
<path d="M143.935 131.947C134.553 132.264 124.791 134.245 117.118 139.956C110.47 144.906 105.83 151.946 103.975 160.05C99.9613 177.567 106.729 196.445 116.567 210.841C123.088 220.388 131.204 228.568 140.744 235.107C143.568 237.038 147.765 235.639 149.405 232.835C151.241 229.701 149.962 226.111 147.132 224.174C134.078 215.229 123.214 201.079 118.346 186.481C117.738 184.651 117.2 182.802 116.757 180.929C116.561 180.118 116.383 179.301 116.225 178.485C116.143 178.067 115.712 175.357 115.864 176.535C115.408 173.066 115.358 169.565 115.687 166.083C115.807 164.836 115.706 165.861 115.668 166.108C115.738 165.652 115.814 165.203 115.896 164.753C116.048 163.956 116.225 163.158 116.434 162.367C116.618 161.677 116.82 160.993 117.048 160.315C117.162 159.98 117.289 159.651 117.403 159.315C117.89 157.916 116.997 160.1 117.574 158.878C118.251 157.448 119.036 156.106 119.897 154.782C120.087 154.491 120.302 154.206 120.505 153.928C119.764 154.915 120.327 154.168 120.498 153.972C121.081 153.301 121.676 152.649 122.309 152.028C124.17 150.224 123.854 150.515 125.81 149.306C126.639 148.793 127.488 148.338 128.355 147.894C129.672 147.223 128.811 147.597 130.21 147.09C135.059 145.331 139.06 144.773 143.922 144.609C152.051 144.337 152.083 131.669 143.922 131.947H143.935Z" fill="#023047"/>
<path d="M188.513 97.2229C176.156 81.2946 164.235 64.9232 151.396 49.3812C145.527 42.278 134.752 42.316 128.523 48.8747C125.775 51.7679 123.23 54.8889 120.597 57.8897C112.221 67.4176 103.839 76.9391 95.4635 86.4669C94.7607 87.2646 94.058 88.0559 93.387 88.8853C89.4745 93.7473 88.8668 100.426 92.0195 105.871C94.077 109.416 97.5336 111.644 101.408 112.613C107.163 114.05 112.835 115.854 118.413 117.887C120.502 118.646 122.578 119.444 124.642 120.28C125.199 120.508 125.756 120.742 126.313 120.97C125.016 120.432 126.06 120.862 126.687 121.134C127.845 121.634 128.998 122.147 130.143 122.673C134.828 124.825 139.412 127.205 143.824 129.877C146.027 131.207 148.186 132.612 150.288 134.1C150.845 134.492 151.396 134.891 151.947 135.296C152.124 135.423 153.643 136.588 152.934 136.037C152.225 135.486 153.814 136.746 154.068 136.955C154.593 137.385 155.112 137.822 155.625 138.265C157.606 139.975 159.512 141.773 161.297 143.691C162.152 144.609 162.988 145.552 163.785 146.521C163.925 146.685 165.089 148.179 164.526 147.432C164.007 146.749 165.26 148.452 165.457 148.736C166.913 150.826 168.217 153.016 169.325 155.308C169.578 155.833 169.812 156.359 170.053 156.891C169.35 155.314 170.078 156.985 170.23 157.403C170.692 158.638 171.097 159.891 171.439 161.164C171.781 162.436 172.053 163.766 172.288 165.083C172.338 165.38 172.382 165.678 172.42 165.975C172.395 165.798 172.262 164.494 172.363 165.646C172.427 166.412 172.503 167.172 172.541 167.944C172.604 169.204 172.61 170.464 172.56 171.724C172.534 172.369 172.49 173.015 172.439 173.661C172.414 173.99 172.37 174.313 172.345 174.642C172.224 176.123 172.528 173.578 172.313 174.946C171.825 178.035 171.072 181.061 170.065 184.024C169.787 184.841 169.489 185.651 169.179 186.462C169.04 186.829 168.894 187.196 168.742 187.557C168.844 187.304 169.185 186.55 168.673 187.709C167.907 189.437 167.077 191.14 166.185 192.811C162.101 200.446 156.942 207.284 151.206 213.697C147.635 217.685 143.862 221.49 139.982 225.174C134.062 230.796 143.02 239.735 148.933 234.126C169.394 214.703 193.375 185.164 182.74 154.858C175.491 134.214 155.973 120.754 136.917 111.923C128.991 108.251 120.806 105.111 112.449 102.56C110.1 101.838 107.733 101.167 105.352 100.553C104.782 100.407 104.2 100.287 103.637 100.129C103.529 100.097 103.415 100.084 103.307 100.053C103.029 99.9705 104.143 100.42 104.029 100.344C103.225 99.7932 102.921 99.6982 102.592 98.8309C102.345 98.1788 102.548 97.6534 103.364 96.6215C104.46 95.2414 105.707 93.9562 106.872 92.6331C111.044 87.8913 115.209 83.1496 119.381 78.4078C123.768 73.4191 128.149 68.4368 132.537 63.4482C134.157 61.6059 136.601 57.5795 138.943 56.6932C141.286 55.8069 143.615 59.8586 145.223 61.9351C148.8 66.5502 152.384 71.1591 155.96 75.7742C163.355 85.302 170.743 94.8362 178.137 104.364C178.612 104.972 179.08 105.58 179.555 106.187C181.651 108.891 186.304 108.39 188.507 106.187C191.179 103.516 190.609 99.9451 188.507 97.2356L188.513 97.2229Z" fill="#023047"/>
<path d="M145.28 155.453H142.748C138.203 155.453 134.518 159.138 134.518 163.683V166.216C134.518 170.761 138.203 174.446 142.748 174.446H145.28C149.826 174.446 153.51 170.761 153.51 166.216V163.683C153.51 159.138 149.826 155.453 145.28 155.453Z" fill="url(#paint1_linear_51_4371)"/>
<defs>
<linearGradient id="paint0_linear_51_4371" x1="140" y1="0" x2="140" y2="280" gradientUnits="userSpaceOnUse">
<stop stop-color="#F4FAFF"/>
<stop offset="0.5" stop-color="#EDF6FF"/>
<stop offset="1" stop-color="#A2D2FF"/>
</linearGradient>
<linearGradient id="paint1_linear_51_4371" x1="148.997" y1="173.572" x2="139.032" y2="156.321" gradientUnits="userSpaceOnUse">
<stop offset="0.4" stop-color="#219EBC"/>
<stop offset="1" stop-color="#BDE0FE"/>
</linearGradient>
</defs>
</svg>
